<svg id="Camada_1" data-name="Camada 1" xmlns="http://www.w3.org/2000/svg" viewBox="0 0 690.57 162.01"><defs><style>.cls-1{fill:#f9f9f9;}</style></defs><path class="cls-1" d="M-568.45-35.73-641,125.88H-710.9L-739.57-35.73h64.36l10.37,92.35h2.14l35.38-92.35Z" transform="translate(739.57 35.73)"/><path class="cls-1" d="M-309.75-35.73l-66.19,161.65h-68.33l-5.8-67.38h-2.44l-23.79,67.38h-69.55L-568.42-35.73h62.84l6.4,81.62H-497l29.59-81.62h61l7.32,81.62h2.45l28.36-81.62Z" transform="translate(739.57 35.73)"/><path class="cls-1" d="M-199.55-25.93q19.37,9.76,19.37,28.06a27.17,27.17,0,0,1-1.07,8.39A32.56,32.56,0,0,0-182.32,14h-50V12.51q0-6.71-5.8-9.46A31.77,31.77,0,0,0-251.86.3q-23.81,0-23.8,9.76,0,4.89,6.71,6.87t21.36,3.81a212.18,212.18,0,0,1,30.8,5,48.39,48.39,0,0,1,21.66,11.9q9.15,8.7,9.15,24.86,0,28.68-20.43,46.21t-63.76,17.54h-3.05q-33.55,0-51.7-10.21t-18.15-31.58a51,51,0,0,1,1.22-12.2h49.41a1.8,1.8,0,0,0-.3,1.22v2.14q0,7.32,7.47,10.52a41.76,41.76,0,0,0,16.63,3.2,85,85,0,0,0,18.45-2q9-2,9-8.39,0-5.18-6.71-7.32t-22-4.57a235.54,235.54,0,0,1-30.2-5.8,47.36,47.36,0,0,1-21.05-12.05Q-330,40.58-329.95,25q0-20.43,12.2-34.16t31.11-20.13a120,120,0,0,1,38.74-6.41h2.44Q-218.92-35.69-199.55-25.93Z" transform="translate(739.57 35.73)"/><path class="cls-1" d="M-160.17,81.65l-4.72,33.46h15.83V126h-31.07l6.26-44.32Z" transform="translate(739.57 35.73)"/><path class="cls-1" d="M-105.85,81.65l-1.48,10.66h-11.24L-123.35,126h-13.44L-132,92.31h-11.24l1.49-10.66Z" transform="translate(739.57 35.73)"/><path class="cls-1" d="M-72.55,83.85a15.84,15.84,0,0,1,6,6,16.85,16.85,0,0,1,2.16,8.46,19,19,0,0,1-.19,2.71l-.84,5.56a24.56,24.56,0,0,1-3.72,9.88,20.54,20.54,0,0,1-7.59,6.94A22.19,22.19,0,0,1-87.5,126h-20l6.26-44.32h20A17.14,17.14,0,0,1-72.55,83.85Zm-16.37,7.88-3.36,24h5a7.09,7.09,0,0,0,5.07-1.81,7.64,7.64,0,0,0,2.29-4.65l1.62-11.89a5.5,5.5,0,0,0-1.58-4,5.43,5.43,0,0,0-4-1.62Z" transform="translate(739.57 35.73)"/><path class="cls-1" d="M-49,114.14-50.62,126H-63l1.62-11.83Z" transform="translate(739.57 35.73)"/></svg>