<svg width="128" height="56" viewBox="0 0 128 56" fill="none" xmlns="http://www.w3.org/2000/svg">
<g filter="url(#filter0_d)">
<rect x="8" y="4" width="112" height="39.9609" rx="18" fill="#F71CA4"/>
<path d="M31.3877 18.5V19.6006H33.9033V27.9062H31.3877V29H37.5811V27.9062H35.168V18.5H31.3877ZM42.8652 29.1367C43.5853 29.1367 44.1891 28.9932 44.6768 28.7061C45.1689 28.4144 45.5381 28.0817 45.7842 27.708L45.0117 27.1064C44.7793 27.4072 44.4876 27.6488 44.1367 27.8311C43.7858 28.0133 43.3848 28.1045 42.9336 28.1045C42.5918 28.1045 42.2796 28.0407 41.9971 27.9131C41.7145 27.7855 41.473 27.61 41.2725 27.3867C41.0765 27.1771 40.9215 26.9355 40.8076 26.6621C40.6982 26.3887 40.6276 26.0719 40.5957 25.7119V25.6641H45.8799V25.0967C45.8799 24.5817 45.8138 24.1032 45.6816 23.6611C45.554 23.2191 45.3581 22.834 45.0938 22.5059C44.8294 22.1823 44.4967 21.9294 44.0957 21.7471C43.6992 21.5602 43.2344 21.4668 42.7012 21.4668C42.2773 21.4668 41.8626 21.5534 41.457 21.7266C41.056 21.8997 40.6982 22.1481 40.3838 22.4717C40.0648 22.7998 39.8096 23.2008 39.6182 23.6748C39.4268 24.1442 39.3311 24.6774 39.3311 25.2744V25.5615C39.3311 26.0765 39.4176 26.5527 39.5908 26.9902C39.764 27.4277 40.0055 27.806 40.3154 28.125C40.6253 28.444 40.9967 28.6924 41.4297 28.8701C41.8672 29.0479 42.3457 29.1367 42.8652 29.1367ZM42.7012 22.5059C43.0247 22.5059 43.3027 22.5651 43.5352 22.6836C43.7721 22.8021 43.9681 22.957 44.123 23.1484C44.278 23.3398 44.3988 23.5677 44.4854 23.832C44.5719 24.0918 44.6152 24.3356 44.6152 24.5635V24.625H40.6367C40.6868 24.2832 40.7734 23.9824 40.8965 23.7227C41.0241 23.4583 41.179 23.235 41.3613 23.0527C41.5436 22.875 41.7487 22.7406 41.9766 22.6494C42.2044 22.5537 42.446 22.5059 42.7012 22.5059ZM52.8525 21.4668C52.3148 21.4668 51.834 21.5853 51.4102 21.8223C50.9909 22.0547 50.6309 22.3737 50.3301 22.7793L50.3232 22.5947L50.2686 21.6035H49.0654V29H50.3369V24.2559C50.4189 24.028 50.5215 23.8229 50.6445 23.6406C50.7721 23.4538 50.9202 23.2965 51.0889 23.1689C51.2757 23.0231 51.4945 22.9137 51.7451 22.8408C51.9958 22.7633 52.276 22.7246 52.5859 22.7246C52.8275 22.7246 53.0576 22.7383 53.2764 22.7656C53.4997 22.7884 53.7344 22.8271 53.9805 22.8818L54.1514 21.6445C54.0238 21.5898 53.8324 21.5465 53.5771 21.5146C53.3265 21.4827 53.085 21.4668 52.8525 21.4668ZM65.4033 21.6035H64.2686V29H65.4717V23.1143C65.499 23.0413 65.5332 22.973 65.5742 22.9092C65.6198 22.8454 65.6722 22.7884 65.7314 22.7383C65.8089 22.6745 65.9023 22.6266 66.0117 22.5947C66.1257 22.5583 66.2578 22.54 66.4082 22.54C66.5449 22.54 66.6634 22.5583 66.7637 22.5947C66.8685 22.6266 66.9551 22.679 67.0234 22.752C67.0964 22.8294 67.1488 22.9274 67.1807 23.0459C67.2171 23.1644 67.2354 23.3011 67.2354 23.4561V29H68.4385V23.4629C68.4385 23.4355 68.4385 23.4128 68.4385 23.3945C68.4385 23.3717 68.4385 23.349 68.4385 23.3262C68.4521 23.2122 68.4795 23.1097 68.5205 23.0186C68.5615 22.9229 68.6185 22.8385 68.6914 22.7656C68.7643 22.6973 68.8555 22.6426 68.9648 22.6016C69.0742 22.5605 69.2041 22.54 69.3545 22.54C69.4958 22.54 69.6188 22.5583 69.7236 22.5947C69.833 22.6312 69.9242 22.6859 69.9971 22.7588C70.0654 22.8363 70.1178 22.9342 70.1543 23.0527C70.1908 23.1712 70.209 23.3079 70.209 23.4629V29H71.4121V23.4766C71.4121 23.1211 71.3711 22.8135 71.2891 22.5537C71.207 22.2894 71.0885 22.0752 70.9336 21.9111C70.7923 21.7653 70.6191 21.6559 70.4141 21.583C70.209 21.5055 69.9788 21.4668 69.7236 21.4668C69.5368 21.4714 69.3636 21.4964 69.2041 21.542C69.0492 21.5876 68.9079 21.6491 68.7803 21.7266C68.68 21.7949 68.5866 21.8747 68.5 21.9658C68.4134 22.057 68.3382 22.1549 68.2744 22.2598C68.2243 22.1458 68.1628 22.0433 68.0898 21.9521C68.0215 21.861 67.944 21.7835 67.8574 21.7197C67.7389 21.6377 67.5999 21.5762 67.4404 21.5352C67.2855 21.4896 67.11 21.4668 66.9141 21.4668C66.5677 21.4714 66.2715 21.5465 66.0254 21.6924C65.7839 21.8382 65.5879 22.041 65.4375 22.3008L65.4033 21.6035ZM78.0908 29H79.4102V28.8906C79.3281 28.6855 79.2643 28.4463 79.2188 28.1729C79.1732 27.8949 79.1504 27.6328 79.1504 27.3867V23.9482C79.1504 23.5335 79.0752 23.1712 78.9248 22.8613C78.7744 22.5514 78.5693 22.2917 78.3096 22.082C78.0452 21.877 77.7331 21.7243 77.373 21.624C77.013 21.5192 76.6234 21.4668 76.2041 21.4668C75.7438 21.4668 75.3314 21.5306 74.9668 21.6582C74.6068 21.7858 74.3014 21.9521 74.0508 22.1572C73.7956 22.3669 73.5996 22.6016 73.4629 22.8613C73.3307 23.1211 73.2624 23.3854 73.2578 23.6543H74.5293C74.5293 23.4993 74.5658 23.3512 74.6387 23.21C74.7161 23.0641 74.8232 22.9388 74.96 22.834C75.0967 22.7292 75.263 22.6449 75.459 22.5811C75.6595 22.5173 75.8851 22.4854 76.1357 22.4854C76.4046 22.4854 76.6462 22.5195 76.8604 22.5879C77.0791 22.6562 77.2637 22.752 77.4141 22.875C77.5645 23.0026 77.6807 23.1553 77.7627 23.333C77.8447 23.5107 77.8857 23.7113 77.8857 23.9346V24.5156H76.5049C75.9899 24.5156 75.5228 24.5658 75.1035 24.666C74.6888 24.7663 74.3333 24.9167 74.0371 25.1172C73.7409 25.3223 73.5107 25.5775 73.3467 25.8828C73.1872 26.1882 73.1074 26.5436 73.1074 26.9492C73.1074 27.2591 73.1667 27.5485 73.2852 27.8174C73.4082 28.0817 73.5814 28.3096 73.8047 28.501C74.0234 28.6969 74.29 28.8519 74.6045 28.9658C74.9235 29.0798 75.279 29.1367 75.6709 29.1367C75.9124 29.1367 76.1403 29.1117 76.3545 29.0615C76.5687 29.0114 76.7715 28.943 76.9629 28.8564C77.1497 28.7699 77.3206 28.6696 77.4756 28.5557C77.6351 28.4417 77.7786 28.321 77.9062 28.1934C77.9199 28.3483 77.9404 28.4987 77.9678 28.6445C77.9997 28.7858 78.0407 28.9043 78.0908 29ZM75.8555 28.0361C75.6094 28.0361 75.3929 28.0042 75.2061 27.9404C75.0192 27.8766 74.8643 27.7878 74.7412 27.6738C74.6182 27.5645 74.5247 27.4323 74.4609 27.2773C74.4017 27.1224 74.3721 26.9538 74.3721 26.7715C74.3721 26.5801 74.4062 26.4092 74.4746 26.2588C74.5475 26.1084 74.6523 25.9785 74.7891 25.8691C74.9805 25.7142 75.238 25.6003 75.5615 25.5273C75.8896 25.4499 76.2725 25.4111 76.71 25.4111H77.8857V26.9082C77.8128 27.054 77.7126 27.1953 77.585 27.332C77.4574 27.4642 77.307 27.5827 77.1338 27.6875C76.9561 27.7923 76.7601 27.8766 76.5459 27.9404C76.3317 28.0042 76.1016 28.0361 75.8555 28.0361ZM81.8369 21.6035V22.7041H84.3525V27.9062H81.8369V29H88.0303V27.9062H85.6172V21.6035H81.8369ZM84.1885 19.6621C84.1885 19.8672 84.25 20.0381 84.373 20.1748C84.5007 20.3115 84.6921 20.3799 84.9473 20.3799C85.1979 20.3799 85.387 20.3115 85.5146 20.1748C85.6423 20.0381 85.7061 19.8672 85.7061 19.6621C85.7061 19.5482 85.6878 19.4434 85.6514 19.3477C85.6149 19.252 85.5602 19.1722 85.4873 19.1084C85.4281 19.0492 85.3529 19.0036 85.2617 18.9717C85.1706 18.9352 85.0658 18.917 84.9473 18.917C84.8288 18.917 84.7217 18.9352 84.626 18.9717C84.5348 19.0036 84.4596 19.0492 84.4004 19.1084C84.3275 19.1768 84.2728 19.2588 84.2363 19.3545C84.2044 19.4502 84.1885 19.5527 84.1885 19.6621ZM94.9619 27.0381C94.9619 27.1566 94.9391 27.2682 94.8936 27.373C94.848 27.4779 94.7819 27.5736 94.6953 27.6602C94.554 27.8014 94.3581 27.9131 94.1074 27.9951C93.8568 28.0726 93.5628 28.1113 93.2256 28.1113C93.0114 28.1113 92.7949 28.0885 92.5762 28.043C92.3574 27.9974 92.1592 27.9199 91.9814 27.8105C91.7992 27.7012 91.6465 27.5576 91.5234 27.3799C91.4049 27.2021 91.3366 26.9834 91.3184 26.7236H90.0537C90.0537 27.0381 90.1243 27.3411 90.2656 27.6328C90.4115 27.9245 90.6211 28.1797 90.8945 28.3984C91.1634 28.6217 91.4938 28.8018 91.8857 28.9385C92.2777 29.0706 92.7243 29.1367 93.2256 29.1367C93.6631 29.1367 94.0664 29.0843 94.4355 28.9795C94.8047 28.8747 95.1214 28.7266 95.3857 28.5352C95.6501 28.3438 95.8551 28.1136 96.001 27.8447C96.1514 27.5758 96.2266 27.2773 96.2266 26.9492C96.2266 26.6439 96.1605 26.375 96.0283 26.1426C95.9007 25.9102 95.7139 25.7051 95.4678 25.5273C95.2217 25.3542 94.9186 25.2061 94.5586 25.083C94.1986 24.9554 93.7907 24.8438 93.335 24.748C92.9886 24.6797 92.7015 24.609 92.4736 24.5361C92.2503 24.4632 92.0726 24.3812 91.9404 24.29C91.8037 24.1989 91.708 24.0964 91.6533 23.9824C91.5986 23.8685 91.5713 23.7386 91.5713 23.5928C91.5713 23.4515 91.6055 23.3148 91.6738 23.1826C91.7422 23.0505 91.8447 22.9342 91.9814 22.834C92.1136 22.7337 92.2799 22.654 92.4805 22.5947C92.6855 22.5355 92.9225 22.5059 93.1914 22.5059C93.4512 22.5059 93.6836 22.5423 93.8887 22.6152C94.0983 22.6882 94.276 22.7839 94.4219 22.9023C94.5677 23.0208 94.6816 23.1576 94.7637 23.3125C94.8457 23.4629 94.8867 23.6178 94.8867 23.7773H96.1514C96.1514 23.4538 96.0807 23.153 95.9395 22.875C95.8027 22.5924 95.6068 22.3464 95.3516 22.1367C95.0964 21.9271 94.7865 21.763 94.4219 21.6445C94.0573 21.526 93.6471 21.4668 93.1914 21.4668C92.7676 21.4668 92.3779 21.5238 92.0225 21.6377C91.6715 21.7516 91.3685 21.9066 91.1133 22.1025C90.8581 22.2985 90.6598 22.5286 90.5186 22.793C90.3773 23.0527 90.3066 23.333 90.3066 23.6338C90.3066 23.9391 90.375 24.208 90.5117 24.4404C90.6484 24.6683 90.8421 24.8665 91.0928 25.0352C91.3389 25.2083 91.6351 25.3564 91.9814 25.4795C92.3324 25.6025 92.7197 25.7074 93.1436 25.7939C93.4899 25.8623 93.7793 25.9398 94.0117 26.0264C94.2441 26.1084 94.431 26.1995 94.5723 26.2998C94.7135 26.4001 94.8138 26.5117 94.873 26.6348C94.9323 26.7533 94.9619 26.8877 94.9619 27.0381Z" fill="white"/>
</g>
<defs>
<filter id="filter0_d" x="0" y="0" width="128" height="55.9609" filterUnits="userSpaceOnUse" color-interpolation-filters="sRGB">
<feFlood flood-opacity="0" result="BackgroundImageFix"/>
<feColorMatrix in="SourceAlpha" type="matrix" values="0 0 0 0 0 0 0 0 0 0 0 0 0 0 0 0 0 0 127 0"/>
<feOffset dy="4"/>
<feGaussianBlur stdDeviation="4"/>
<feColorMatrix type="matrix" values="0 0 0 0 0 0 0 0 0 0 0 0 0 0 0 0 0 0 0.25 0"/>
<feBlend mode="normal" in2="BackgroundImageFix" result="effect1_dropShadow"/>
<feBlend mode="normal" in="SourceGraphic" in2="effect1_dropShadow" result="shape"/>
</filter>
</defs>
</svg>
